# xmcd CD database file
#
# Track frame offsets:
#	150
#	15922
#	29586
#	44793
#	58925
#	73413
#	87230
#	102682
#	117607
#	131645
#	148323
#	164113
#	181425
#
# Disc length: 2673 seconds
#
# Revision: 0
# Processed by: cddbd v1.4PL0 Copyright (c) Steve Scherf et al.
# Submitted via: CDex 1.51
#
DISCID=d70a6f0d
DTITLE=Various Artist - Hot Bachata
DYEAR=1998
DGENRE=Salsa
TTITLE0=El ultimo beso (Cohan-Omero)
TTITLE1=La copa rota (Benito de Jesús)
TTITLE2=Por ella lo escogiste (Jhon Dennis)
TTITLE3=El contragolpe (Miguel A. Valladares)
TTITLE4=Envidia (Bonny Cedepa)
TTITLE5=Sufrir (A. Villegas)
TTITLE6=Solamente tú (Alvaro Velásquez)
TTITLE7=Dos corazones (Bonny Cedepa)
TTITLE8=Embrujo (Romualdo Brito)
TTITLE9=Veinte años menos (Alvaro Córdoba)
TTITLE10=Amor no correspondido (Diego Javier González)
TTITLE11=Que nos importa (Bayardo de la Vega)
TTITLE12=Te estan matando los años (Alcides Arango)
EXTD=YEAR: 1998
EXTT0=
EXTT1=
EXTT2=
EXTT3=
EXTT4=
EXTT5=
EXTT6=
EXTT7=
EXTT8=
EXTT9=
EXTT10=
EXTT11=
EXTT12=
PLAYORDER=
